:FULLY-SPECIFIED
:FORCE-ALL-JOINTS-BE-3DOF
:DEGREES
1937
root 5.75472 13.7085 27.9971 -26.7225 72.5048 -29.7059
lfemur -60.4653 -0.385899 -0.497816
ltibia 53.337 -0 0
lfoot 3.74278 -3.37445 0.00234195
ltoes -31.1028 0 0
rfemur -6.22476 4.79067 18.6547
rtibia 68.8939 -0 0
rfoot -22.7336 -23.7294 -0.0890083
rtoes -30.0782 0 0
lowerback 13.8949 4.7194 3.51669
upperback -0.31099 7.17912 3.26277
thorax -8.10615 3.43284 0.0256479
lowerneck -0.939126 15.8291 6.41923
upperneck 6.09841 21.5912 -7.24026
head 3.72807 10.7049 -2.33358
lclavicle 3.12589e-14 -9.54166e-15 0
lhumerus 80.3253 -36.268 29.3212
lradius 68.3245 -0 0
lwrist 34.4371 0 0
lhand -3.61622 32.2295 -0.00413902
lfingers 7.12502 -0 0
lthumb 22.1348 61.2071 0.0205626
rclavicle 3.12589e-14 -9.54166e-15 0
rhumerus -24.905 33.7962 -70.9107
rradius 87.0837 -0 0
rwrist -25.1429 0 0
rhand -14.7848 -46.6706 -0.00377716
rfingers 7.12502 -0 0
rthumb 11.3715 -76.3203 -0.0001313
1938
root 5.61407 13.7306 28.0343 -27.243 72.9917 -30.247
lfemur -60.2425 -1.88173 0.254796
ltibia 50.1702 -0 0
lfoot 4.63256 -4.20881 0.0555308
ltoes -30.6528 0 0
rfemur -6.60282 6.23624 19.1066
rtibia 69.3389 -0 0
rfoot -22.5339 -23.3612 -0.118268
rtoes -31.0394 0 0
lowerback 13.9476 4.74923 3.39356
upperback -0.311684 7.19418 3.21116
thorax -8.14245 3.44184 0.0290497
lowerneck -0.950493 15.8454 6.46144
upperneck 6.11384 21.6127 -7.26877
head 3.72142 10.7133 -2.32691
lclavicle 3.12589e-14 -9.54166e-15 0
lhumerus 83.1354 -36.838 26.261
lradius 71.9034 -0 0
lwrist 37.3186 0 0
lhand -3.53877 32.4466 -0.017152
lfingers 7.12502 -0 0
lthumb 22.2103 61.4355 0.00957022
rclavicle 3.12589e-14 -9.54166e-15 0
rhumerus -22.6183 34.9212 -69.8718
rradius 86.7159 -0 0
rwrist -24.3303 0 0
rhand -14.5649 -46.6692 0.000875472
rfingers 7.12502 -0 0
rthumb 11.584 -76.3096 0.00284513
1939
root 5.47343 13.7528 28.0715 -27.5511 73.2956 -30.5859
lfemur -60.0421 -3.26394 1.06383
ltibia 47.1116 -0 0
lfoot 5.46131 -5.06982 0.125599
ltoes -30.1782 0 0
rfemur -6.84741 7.58221 19.525
rtibia 69.6198 -0 0
rfoot -22.3456 -23.0188 -0.148463
rtoes -31.9922 0 0
lowerback 13.9812 4.78167 3.3044
upperback -0.320393 7.21778 3.16253
thorax -8.17282 3.4536 0.0164663
lowerneck -0.956671 15.8649 6.51174
upperneck 6.14296 21.6381 -7.28283
head 3.7186 10.7241 -2.31706
lclavicle 3.12589e-14 -9.54166e-15 0
lhumerus 85.5689 -37.1371 23.9023
lradius 74.9271 -0 0
lwrist 39.4295 0 0
lhand -3.6289 32.6714 -0.0325817
lfingers 7.12502 -0 0
lthumb 22.1241 61.6773 -0.00531766
rclavicle 3.12589e-14 -9.54166e-15 0
rhumerus -20.6702 35.9145 -68.9904
rradius 86.4711 -0 0
rwrist -23.7182 0 0
rhand -14.3487 -46.589 0.00697537
rfingers 7.12502 -0 0
rthumb 11.7932 -76.2218 0.00672012
1940
root 5.33278 13.775 28.1087 -27.6999 73.4631 -30.7765
lfemur -59.865 -4.53195 1.90063
ltibia 44.179 -0 0
lfoot 6.22283 -5.93924 0.208972
ltoes -29.6872 0 0
rfemur -6.98337 8.82335 19.92
rtibia 69.7552 -0 0
rfoot -22.1758 -22.7061 -0.178473
rtoes -32.9282 0 0
lowerback 13.9989 4.81348 3.24731
upperback -0.336069 7.24567 3.11765
thorax -8.19834 3.46621 -0.00953186
lowerneck -0.958824 15.885 6.56828
upperneck 6.18133 21.664 -7.28564
head 3.71833 10.7355 -2.30516
lclavicle 3.12589e-14 -9.54166e-15 0
lhumerus 87.6279 -37.2439 22.1887
lradius 77.4792 -0 0
lwrist 40.8416 0 0
lhand -3.87167 32.9039 -0.0493132
lfingers 7.12502 -0 0
lthumb 21.8906 61.932 -0.022805
rclavicle 3.12589e-14 -9.54166e-15 0
rhumerus -19.0505 36.8039 -68.2704
rradius 86.3453 -0 0
rwrist -23.3038 0 0
rhand -14.1272 -46.4377 0.0143115
rfingers 7.12502 -0 0
rthumb 12.0074 -76.0633 0.0114955
1941
root 5.19214 13.7971 28.1459 -27.7564 73.5403 -30.8865
lfemur -59.7103 -5.68498 2.73625
ltibia 41.3901 -0 0
lfoot 6.91107 -6.79901 0.301365
ltoes -29.1883 0 0
rfemur -7.03519 9.95499 20.2997
rtibia 69.7635 -0 0
rfoot -22.0311 -22.4274 -0.207104
rtoes -33.839 0 0
lowerback 14.0037 4.84143 3.22037
upperback -0.357656 7.27358 3.07727
thorax -8.22006 3.47774 -0.0463726
lowerneck -0.958123 15.9032 6.62922
upperneck 6.22448 21.687 -7.28043
head 3.7193 10.7459 -2.29232
lclavicle 3.12589e-14 -9.54166e-15 0
lhumerus 89.3337 -37.2203 21.0464
lradius 79.6431 -0 0
lwrist 41.6269 0 0
lhand -4.25216 33.144 -0.0662899
lfingers 7.12502 -0 0
lthumb 21.5242 62.1993 -0.041623
rclavicle 3.12589e-14 -9.54166e-15 0
rhumerus -17.7449 37.6135 -67.7102
rradius 86.3344 -0 0
rwrist -23.0845 0 0
rhand -13.8915 -46.2227 0.0226767
rfingers 7.12502 -0 0
rthumb 12.2354 -75.8407 0.0171663
1942
root 5.05149 13.8193 28.1831 -27.794 73.573 -30.99
lfemur -59.576 -6.72209 3.54142
ltibia 38.7627 -0 0
lfoot 7.52014 -7.63119 0.397895
ltoes -28.6899 0 0
rfemur -7.02719 10.9729 20.671
rtibia 69.6632 -0 0
rfoot -21.9183 -22.1865 -0.233114
rtoes -34.7162 0 0
lowerback 13.9986 4.86231 3.22168
upperback -0.384089 7.29727 3.04215
thorax -8.23904 3.48627 -0.0914826
lowerneck -0.955745 15.9171 6.69273
upperneck 6.26794 21.7039 -7.27044
head 3.72022 10.7534 -2.27968
lclavicle 3.12589e-14 -9.54166e-15 0
lhumerus 90.7188 -37.1142 20.3907
lradius 81.5019 -0 0
lwrist 41.8572 0 0
lhand -4.75545 33.3916 -0.0825242
lfingers 7.12502 -0 0
lthumb 21.0393 62.4787 -0.0605516
rclavicle 3.12589e-14 -9.54166e-15 0
rhumerus -16.7359 38.3648 -67.3044
rradius 86.4346 -0 0
rwrist -23.0575 0 0
rhand -13.6326 -45.9518 0.0318215
rfingers 7.12502 -0 0
rthumb 12.4855 -75.5605 0.0236762
